<!DOCTYPE svg PUBLIC "-//W3C//DTD SVG 1.1//EN" "http://www.w3.org/Graphics/SVG/1.1/DTD/svg11.dtd">
<!-- Uploaded to: SVG Repo, www.svgrepo.com, Transformed by: SVG Repo Mixer Tools -->
<svg fill="#29B6F6" height="800px" width="800px" version="1.1" id="Layer_1" xmlns="http://www.w3.org/2000/svg" xmlns:xlink="http://www.w3.org/1999/xlink" viewBox="0 0 512 512" xml:space="preserve" stroke="#29B6F6" stroke-width="0.00512">
<g id="SVGRepo_bgCarrier" stroke-width="0"/>
<g id="SVGRepo_tracerCarrier" stroke-linecap="round" stroke-linejoin="round"/>
<g id="SVGRepo_iconCarrier"> <g> <g> <path d="M503.467,230.4c4.71,0,8.533-3.823,8.533-8.533V34.133C512,15.309,496.691,0,477.867,0H256 c-4.71,0-8.533,3.823-8.533,8.533v59.733c0,18.782,15.309,25.6,25.6,25.6c8.482,0,15.829-4.591,20.693-12.919 c4.634-7.936,12.851-12.681,21.973-12.681c14.831,0,25.6,14.353,25.6,34.133s-10.769,34.133-25.6,34.133 c-9.105,0-17.579-4.949-22.11-12.928c-4.591-8.055-12.083-12.672-20.557-12.672c-10.291,0-25.6,6.818-25.6,25.6v110.933H136.533 c-6.869,0-8.431-4.693-8.533-8.533c0-2.27,1.365-4.198,4.045-5.726c13.295-7.56,21.555-21.709,21.555-36.941 c0-24.328-22.016-42.667-51.2-42.667c-29.184,0-51.2,18.338-51.2,42.667c0,15.027,8.098,29.099,21.146,36.71 c4.454,2.603,4.454,5.129,4.454,5.854c-0.102,3.942-1.664,8.636-8.533,8.636h-51.2V34.133c0-9.412,7.654-17.067,17.067-17.067 h187.733c4.71,0,8.533-3.823,8.533-8.533S226.577,0,221.867,0H34.133C15.309,0,0,15.309,0,34.133V256 c0,4.71,3.823,8.533,8.533,8.533h59.733c18.782,0,25.6-15.309,25.6-25.6c0-8.482-4.591-15.829-12.919-20.693 c-7.936-4.634-12.681-12.851-12.681-21.973c0-14.831,14.353-25.6,34.133-25.6s34.133,10.769,34.133,25.6 c0,9.105-4.949,17.579-12.928,22.11c-8.055,4.591-12.672,12.083-12.672,20.557c0,10.291,6.818,25.6,25.6,25.6h110.933v110.933 c0,6.869-4.693,8.431-8.533,8.533c-2.27,0-4.198-1.365-5.726-4.053c-7.56-13.286-21.717-21.547-36.941-21.547 c-24.328,0-42.667,22.016-42.667,51.2c0,29.184,18.338,51.2,42.667,51.2c15.027,0,29.099-8.107,36.71-21.146 c2.603-4.454,5.129-4.454,5.854-4.454c3.942,0.102,8.636,1.664,8.636,8.533v51.2H34.133c-9.412,0-17.067-7.654-17.067-17.067 V290.133c0-4.71-3.823-8.533-8.533-8.533S0,285.423,0,290.133v187.733C0,496.691,15.309,512,34.133,512H256 c4.71,0,8.533-3.823,8.533-8.533v-59.733c0-18.782-15.309-25.6-25.6-25.6c-8.482,0-15.829,4.591-20.693,12.919 c-4.634,7.936-12.851,12.681-21.973,12.681c-14.831,0-25.6-14.353-25.6-34.133s10.769-34.133,25.6-34.133 c9.105,0,17.579,4.949,22.101,12.911c4.574,8.064,12.075,12.689,20.565,12.689c10.291,0,25.6-6.818,25.6-25.6V264.533h110.933 c6.869,0,8.431,4.693,8.533,8.533c0,2.27-1.365,4.198-4.053,5.726c-13.286,7.561-21.547,21.717-21.547,36.941 c0,24.329,22.016,42.667,51.2,42.667c29.184,0,51.2-18.338,51.2-42.667c0-15.027-8.107-29.099-21.146-36.71 c-4.454-2.603-4.454-5.129-4.454-5.854c0.102-3.942,1.664-8.636,8.533-8.636h51.2v213.333c0,9.412-7.654,17.067-17.067,17.067 H290.133c-4.71,0-8.533,3.823-8.533,8.533s3.823,8.533,8.533,8.533h187.733C496.691,512,512,496.691,512,477.867V256 c0-4.71-3.823-8.533-8.533-8.533h-59.733c-18.782,0-25.6,15.309-25.6,25.6c0,8.482,4.591,15.829,12.919,20.693 c7.936,4.634,12.681,12.851,12.681,21.973c0,14.831-14.353,25.6-34.133,25.6s-34.133-10.769-34.133-25.6 c0-9.105,4.949-17.579,12.911-22.101c8.064-4.574,12.689-12.075,12.689-20.565c0-10.291-6.818-25.6-25.6-25.6H264.533V136.533 c0-6.869,4.693-8.431,8.533-8.533c2.27,0,4.198,1.365,5.726,4.045c7.561,13.295,21.709,21.555,36.941,21.555 c24.329,0,42.667-22.016,42.667-51.2c0-29.184-18.338-51.2-42.667-51.2c-15.027,0-29.099,8.098-36.71,21.146 c-2.603,4.454-5.129,4.454-5.854,4.454c-3.942-0.102-8.636-1.664-8.636-8.533v-51.2h213.333c9.412,0,17.067,7.654,17.067,17.067 v187.733C494.933,226.577,498.756,230.4,503.467,230.4z"/> </g> </g> </g>
</svg>