<!DOCTYPE svg PUBLIC "-//W3C//DTD SVG 1.1//EN" "http://www.w3.org/Graphics/SVG/1.1/DTD/svg11.dtd">
<!-- Uploaded to: SVG Repo, www.svgrepo.com, Transformed by: SVG Repo Mixer Tools -->
<svg fill="#ffffff" width="64px" height="64px" viewBox="0 0 32 32" version="1.1" xmlns="http://www.w3.org/2000/svg" stroke="#ffffff">
<g id="SVGRepo_bgCarrier" stroke-width="0"/>
<g id="SVGRepo_tracerCarrier" stroke-linecap="round" stroke-linejoin="round"/>
<g id="SVGRepo_iconCarrier"> <title>monitor-code</title> <path d="M28 2.25h-24c-1.518 0.002-2.748 1.232-2.75 2.75v16c0.002 1.518 1.232 2.748 2.75 2.75h8.806l-2.167 4.5h-4.64c-0.414 0-0.75 0.336-0.75 0.75s0.336 0.75 0.75 0.75v0h20c0.414 0 0.75-0.336 0.75-0.75s-0.336-0.75-0.75-0.75v0h-4.537l-2.25-4.5h8.787c1.518-0.002 2.748-1.232 2.75-2.75v-16c-0.002-1.518-1.232-2.748-2.75-2.75h-0zM19.787 28.25h-7.482l2.166-4.5h3.065zM29.25 21c-0.001 0.69-0.56 1.249-1.25 1.25h-24c-0.69-0.001-1.249-0.56-1.25-1.25v-16c0.001-0.69 0.56-1.249 1.25-1.25h24c0.69 0.001 1.249 0.56 1.25 1.25v0zM9.026 13.252l3.538-4.044c0.114-0.131 0.184-0.303 0.184-0.492 0-0.414-0.336-0.75-0.75-0.75-0.223 0-0.424 0.098-0.562 0.253l-0.001 0.001-4 4.572c-0.115 0.131-0.185 0.304-0.185 0.494 0 0.207 0.084 0.395 0.22 0.53l4 4c0.135 0.131 0.319 0.212 0.523 0.212 0.414 0 0.75-0.336 0.75-0.75 0-0.203-0.081-0.388-0.212-0.523l0 0zM20.564 8.221c-0.138-0.156-0.339-0.254-0.562-0.254-0.414 0-0.75 0.336-0.75 0.75 0 0.189 0.070 0.361 0.184 0.493l-0.001-0.001 3.537 4.043-3.504 3.504c-0.136 0.136-0.219 0.323-0.219 0.53 0 0.415 0.336 0.751 0.751 0.751 0.208 0 0.395-0.084 0.531-0.22v0l4-4c0.135-0.136 0.218-0.323 0.218-0.53 0-0.19-0.070-0.363-0.186-0.495l0.001 0.001z"/> </g>
</svg>
